<svg width="40" height="40" viewBox="0 0 40 40" fill="none" xmlns="http://www.w3.org/2000/svg">
<rect width="40" height="40" rx="20" fill="#FF8201"/>
<path fill-rule="evenodd" clip-rule="evenodd" d="M25.4201 26.9869C25.6862 26.9869 25.9021 26.7727 25.9021 26.5066V22.8011C25.9021 22.5299 25.6827 22.3105 25.4115 22.3105H24.5736V13.9044C24.5736 13.6453 24.3646 13.4363 24.1055 13.4363H18.2596C18.168 13.4363 18.0778 13.4348 17.9889 13.4334C17.3842 13.4237 16.8428 13.415 16.3593 13.8699C15.8821 14.3185 15.826 14.9547 15.7966 15.2881C15.7923 15.3373 15.7885 15.3799 15.7841 15.4143C15.7416 15.7421 15.7039 16.1593 15.6518 16.7342L15.6424 16.8377C15.2243 21.3984 14.4418 22.3122 14.4418 22.3122H13.7421C13.4174 22.3122 13.1548 22.5748 13.1548 22.8996V25.6135C13.1548 26.3702 13.7698 26.9852 14.5264 26.9852H15.5387C15.8031 26.9852 16.019 26.7709 16.019 26.5049V24.9657H22.8686V25.6152C22.8686 26.3719 23.4836 26.9869 24.2402 26.9869H25.4201ZM17.3882 22.3141H21.5602V16.178H18.6113C18.5422 18.4514 18.3107 21.2828 17.3882 22.3141Z" fill="white"/>
<path fill-rule="evenodd" clip-rule="evenodd" d="M35 20C35 28.2843 28.2843 35 20 35C11.7157 35 5 28.2843 5 20C5 11.7157 11.7157 5 20 5C28.2843 5 35 11.7157 35 20ZM32 20C32 26.6274 26.6274 32 20 32C13.3726 32 8 26.6274 8 20C8 13.3726 13.3726 8 20 8C26.6274 8 32 13.3726 32 20Z" fill="white"/>
</svg>
