<svg width="11" height="10" viewBox="0 0 11 10" fill="none" xmlns="http://www.w3.org/2000/svg">
<path d="M1.0625 4.5625H9.8125C9.94025 4.5625 10.0451 4.60348 10.1271 4.68544C10.209 4.7674 10.25 4.87225 10.25 5C10.25 5.12775 10.209 5.2326 10.1271 5.31456C10.0451 5.39652 9.94025 5.4375 9.8125 5.4375H1.0625C0.93475 5.4375 0.829896 5.39652 0.747938 5.31456C0.665979 5.2326 0.625 5.12775 0.625 5C0.625 4.87225 0.665979 4.7674 0.747938 4.68544C0.829896 4.60348 0.93475 4.5625 1.0625 4.5625ZM1.24013 5L4.87706 8.62294C4.95902 8.71423 5 8.81908 5 8.9375C5 9.05592 4.95669 9.15844 4.87006 9.24506C4.78344 9.33169 4.68092 9.375 4.5625 9.375C4.44408 9.375 4.33923 9.33402 4.24794 9.25206L0.310438 5.31456C0.228479 5.22327 0.1875 5.11842 0.1875 5C0.1875 4.88158 0.228479 4.77673 0.310438 4.68544L4.24794 0.747938C4.33923 0.665979 4.44408 0.625 4.5625 0.625C4.68092 0.625 4.78344 0.668312 4.87006 0.754937C4.95669 0.841562 5 0.944083 5 1.0625C5 1.18092 4.95902 1.28577 4.87706 1.37706L1.24013 5Z" fill="#606266"/>
</svg>
