<svg width="14" height="14" viewBox="0 0 14 14" fill="none" xmlns="http://www.w3.org/2000/svg">
<path fill-rule="evenodd" clip-rule="evenodd" d="M1.74999 5.25V12.25H12.25V2.625H10.5V3.0625C10.5 3.1901 10.459 3.29492 10.3769 3.37695C10.2949 3.45899 10.1901 3.5 10.0625 3.5C9.93489 3.5 9.83007 3.45899 9.74804 3.37695C9.666 3.29492 9.62499 3.1901 9.62499 3.0625V2.625H4.37499V3.0625C4.37499 3.1901 4.33397 3.29492 4.25194 3.37695C4.16991 3.45899 4.06509 3.5 3.93749 3.5C3.80988 3.5 3.70507 3.45899 3.62304 3.37695C3.541 3.29492 3.49999 3.1901 3.49999 3.0625V2.625H1.74999V4.375H12.25V5.25H1.74999ZM4.375 1.75H9.625V1.3125C9.625 1.1849 9.66601 1.08008 9.74805 0.998047C9.83008 0.916016 9.9349 0.875 10.0625 0.875C10.1901 0.875 10.2949 0.916016 10.377 0.998047C10.459 1.08008 10.5 1.1849 10.5 1.3125V1.75H12.6875C12.8151 1.75 12.9199 1.79102 13.002 1.87305C13.084 1.95508 13.125 2.0599 13.125 2.1875V12.6875C13.125 12.8151 13.084 12.9199 13.002 13.002C12.9199 13.084 12.8151 13.125 12.6875 13.125H1.3125C1.1849 13.125 1.08008 13.084 0.998047 13.002C0.916016 12.9199 0.875 12.8151 0.875 12.6875V2.1875C0.875 2.0599 0.916016 1.95508 0.998047 1.87305C1.08008 1.79102 1.1849 1.75 1.3125 1.75H3.5V1.3125C3.5 1.1849 3.54102 1.08008 3.62305 0.998047C3.70508 0.916016 3.8099 0.875 3.9375 0.875C4.0651 0.875 4.16992 0.916016 4.25195 0.998047C4.33398 1.08008 4.375 1.1849 4.375 1.3125V1.75ZM3.93747 7H4.81247C4.94008 7 5.0449 7.04102 5.12693 7.12305C5.20896 7.20508 5.24997 7.3099 5.24997 7.4375C5.24997 7.5651 5.20896 7.66992 5.12693 7.75195C5.0449 7.83399 4.94008 7.875 4.81247 7.875H3.93747C3.80987 7.875 3.70505 7.83399 3.62302 7.75195C3.54099 7.66992 3.49997 7.5651 3.49997 7.4375C3.49997 7.3099 3.54099 7.20508 3.62302 7.12305C3.70505 7.04102 3.80987 7 3.93747 7ZM3.93747 9.625H4.81247C4.94008 9.625 5.0449 9.66602 5.12693 9.74805C5.20896 9.83008 5.24997 9.9349 5.24997 10.0625C5.24997 10.1901 5.20896 10.2949 5.12693 10.377C5.0449 10.459 4.94008 10.5 4.81247 10.5H3.93747C3.80987 10.5 3.70505 10.459 3.62302 10.377C3.54099 10.2949 3.49997 10.1901 3.49997 10.0625C3.49997 9.9349 3.54099 9.83008 3.62302 9.74805C3.70505 9.66602 3.80987 9.625 3.93747 9.625ZM6.56253 7H7.43753C7.56514 7 7.66996 7.04102 7.75199 7.12305C7.83402 7.20508 7.87503 7.3099 7.87503 7.4375C7.87503 7.5651 7.83402 7.66992 7.75199 7.75195C7.66996 7.83399 7.56514 7.875 7.43753 7.875H6.56253C6.43493 7.875 6.33011 7.83399 6.24808 7.75195C6.16605 7.66992 6.12503 7.5651 6.12503 7.4375C6.12503 7.3099 6.16605 7.20508 6.24808 7.12305C6.33011 7.04102 6.43493 7 6.56253 7ZM6.56253 9.625H7.43753C7.56514 9.625 7.66996 9.66602 7.75199 9.74805C7.83402 9.83008 7.87503 9.9349 7.87503 10.0625C7.87503 10.1901 7.83402 10.2949 7.75199 10.377C7.66996 10.459 7.56514 10.5 7.43753 10.5H6.56253C6.43493 10.5 6.33011 10.459 6.24808 10.377C6.16605 10.2949 6.12503 10.1901 6.12503 10.0625C6.12503 9.9349 6.16605 9.83008 6.24808 9.74805C6.33011 9.66602 6.43493 9.625 6.56253 9.625ZM9.18748 7H10.0625C10.1901 7 10.2949 7.04102 10.3769 7.12305C10.459 7.20508 10.5 7.3099 10.5 7.4375C10.5 7.5651 10.459 7.66992 10.3769 7.75195C10.2949 7.83399 10.1901 7.875 10.0625 7.875H9.18748C9.05988 7.875 8.95506 7.83399 8.87303 7.75195C8.791 7.66992 8.74998 7.5651 8.74998 7.4375C8.74998 7.3099 8.791 7.20508 8.87303 7.12305C8.95506 7.04102 9.05988 7 9.18748 7ZM9.18748 9.625H10.0625C10.1901 9.625 10.2949 9.66602 10.3769 9.74805C10.459 9.83008 10.5 9.9349 10.5 10.0625C10.5 10.1901 10.459 10.2949 10.3769 10.377C10.2949 10.459 10.1901 10.5 10.0625 10.5H9.18748C9.05988 10.5 8.95506 10.459 8.87303 10.377C8.791 10.2949 8.74998 10.1901 8.74998 10.0625C8.74998 9.9349 8.791 9.83008 8.87303 9.74805C8.95506 9.66602 9.05988 9.625 9.18748 9.625Z" fill="#A8ABB2"/>
</svg>
