<svg width="22" height="22" viewBox="0 0 22 22" fill="none" xmlns="http://www.w3.org/2000/svg">
<path fill-rule="evenodd" clip-rule="evenodd" d="M11 21.5C16.799 21.5 21.5 16.799 21.5 11C21.5 5.20101 16.799 0.5 11 0.5C5.20101 0.5 0.5 5.20101 0.5 11C0.5 16.799 5.20101 21.5 11 21.5ZM5.98743 11.8766C5.69454 11.5837 5.69454 11.1088 5.98743 10.8159C6.28032 10.523 6.7552 10.523 7.04809 10.8159L9.69974 13.4676L15.5334 7.63395C15.8263 7.34106 16.3011 7.34106 16.594 7.63395C16.8869 7.92685 16.8869 8.40172 16.594 8.69461L10.2301 15.0586C9.93718 15.3515 9.4623 15.3515 9.16941 15.0586L5.98743 11.8766Z" fill="#67C23A"/>
</svg>
