<svg width="24" height="24" viewBox="0 0 24 24" fill="none" xmlns="http://www.w3.org/2000/svg">
<path d="M17.9062 5.03917L11.9999 10.9454L6.09368 5.03917C5.93718 4.89867 5.76143 4.82842 5.56643 4.82842C5.37143 4.82842 5.19943 4.90267 5.05043 5.05117C4.90143 5.19967 4.82718 5.37167 4.82768 5.56717C4.82818 5.76267 4.89843 5.93842 5.03843 6.09442L10.9447 12.0007L5.03843 17.9069C4.83543 18.1099 4.76893 18.3522 4.83893 18.6337C4.90893 18.9152 5.08093 19.0909 5.35493 19.1609C5.62893 19.2309 5.87493 19.1644 6.09293 18.9614L11.9992 13.0552L17.9054 18.9614C18.0619 19.1019 18.2377 19.1722 18.4327 19.1722C18.6277 19.1722 18.7997 19.0979 18.9487 18.9494C19.0977 18.8009 19.1719 18.6289 19.1714 18.4334C19.1709 18.2379 19.1007 18.0622 18.9607 17.9062L13.0544 11.9999L18.9607 6.09367C19.1637 5.89067 19.2302 5.64842 19.1602 5.36692C19.0902 5.08542 18.9144 4.90967 18.6329 4.83967C18.3514 4.76967 18.1092 4.83617 17.9062 5.03917Z" fill="#606266"/>
</svg>
