<svg width="18" height="18" viewBox="0 0 18 18" fill="none" xmlns="http://www.w3.org/2000/svg">
<path d="M2.8125 4.5H1.6875C1.52325 4.5 1.38844 4.44731 1.28306 4.34194C1.17769 4.23656 1.125 4.10175 1.125 3.9375C1.125 3.77325 1.17769 3.63844 1.28306 3.53306C1.38844 3.42769 1.52325 3.375 1.6875 3.375H6.1875V1.6875C6.1875 1.52325 6.24019 1.38844 6.34556 1.28306C6.45094 1.17769 6.58575 1.125 6.75 1.125H11.25C11.4143 1.125 11.5491 1.17769 11.6544 1.28306C11.7598 1.38844 11.8125 1.52325 11.8125 1.6875V3.375H16.3125C16.4768 3.375 16.6116 3.42769 16.7169 3.53306C16.8223 3.63844 16.875 3.77325 16.875 3.9375C16.875 4.10175 16.8223 4.23656 16.7169 4.34194C16.6116 4.44731 16.4768 4.5 16.3125 4.5H15.1875V16.3125C15.1875 16.4768 15.1348 16.6116 15.0294 16.7169C14.9241 16.8223 14.7893 16.875 14.625 16.875H3.375C3.21075 16.875 3.07594 16.8223 2.97056 16.7169C2.86519 16.6116 2.8125 16.4768 2.8125 16.3125V4.5ZM10.6875 3.375V2.25H7.3125V3.375H10.6875ZM3.9375 15.75H14.0625V4.5H3.9375V15.75ZM7.3125 13.5C7.14825 13.5 7.01344 13.4473 6.90806 13.3419C6.80269 13.2366 6.75 13.1018 6.75 12.9375V7.3125C6.75 7.14825 6.80269 7.01344 6.90806 6.90806C7.01344 6.80269 7.14825 6.75 7.3125 6.75C7.47675 6.75 7.61156 6.80269 7.71694 6.90806C7.82231 7.01344 7.875 7.14825 7.875 7.3125V12.9375C7.875 13.1018 7.82231 13.2366 7.71694 13.3419C7.61156 13.4473 7.47675 13.5 7.3125 13.5ZM10.6875 13.5C10.5232 13.5 10.3884 13.4473 10.2831 13.3419C10.1777 13.2366 10.125 13.1018 10.125 12.9375V7.3125C10.125 7.14825 10.1777 7.01344 10.2831 6.90806C10.3884 6.80269 10.5232 6.75 10.6875 6.75C10.8518 6.75 10.9866 6.80269 11.0919 6.90806C11.1973 7.01344 11.25 7.14825 11.25 7.3125V12.9375C11.25 13.1018 11.1973 13.2366 11.0919 13.3419C10.9866 13.4473 10.8518 13.5 10.6875 13.5Z" fill="#606266"/>
</svg>
