<svg width="12" height="12" viewBox="0 0 12 12" fill="none" xmlns="http://www.w3.org/2000/svg">
<path d="M1.1875 10.375H10.8125C10.9403 10.375 11.0451 10.416 11.1271 10.4979C11.209 10.5799 11.25 10.6847 11.25 10.8125C11.25 10.9402 11.209 11.0451 11.1271 11.1271C11.0451 11.209 10.9403 11.25 10.8125 11.25H1.1875C1.05975 11.25 0.954896 11.209 0.872938 11.1271C0.790979 11.0451 0.75 10.9402 0.75 10.8125C0.75 10.6847 0.790979 10.5799 0.872938 10.4979C0.954896 10.416 1.05975 10.375 1.1875 10.375ZM6.4375 6.90255L9.66406 3.67599L10.2932 4.29111L5.95931 8.62499L1.62544 4.29111L2.24056 3.67599L5.56294 6.99836V0.750427H6.43794V6.90299L6.4375 6.90255Z" fill="#606266"/>
</svg>
