<svg width="14" height="14" viewBox="0 0 14 14" fill="none" xmlns="http://www.w3.org/2000/svg">
<path d="M11.9875 2.1438C11.9875 2.01255 11.9438 1.92505 11.8562 1.83755C11.7688 1.75005 11.6812 1.7063 11.55 1.7063C11.4187 1.7063 11.3313 1.75005 11.2438 1.83755L10.0625 3.0188C9.1875 2.5813 8.18125 2.3188 7 2.18755C4.8125 2.4063 3.0625 3.1938 1.8375 4.5938C0.6125 5.9938 0 6.7813 0 7.00005C0 7.2188 0.65625 8.0063 1.8375 9.4063C2.14375 9.7563 2.45 10.0625 2.84375 10.325L1.6625 11.55C1.575 11.6375 1.53125 11.725 1.53125 11.8563C1.53125 11.9875 1.575 12.075 1.6625 12.1625C1.75 12.25 1.8375 12.2938 1.96875 12.2938C2.1 12.2938 2.1875 12.25 2.275 12.1625L11.9 2.45005C11.9438 2.36255 11.9875 2.27505 11.9875 2.1438ZM3.15 9.36255C2.1 8.40005 1.4 7.61255 1.05 7.00005C1.44375 6.3438 2.14375 5.5563 3.15 4.63755C4.15625 3.7188 5.46875 3.15005 7 3.06255C7.875 3.1063 8.70625 3.32505 9.40625 3.67505L8.6625 4.4188C8.18125 4.11255 7.65625 3.93755 7 3.93755C6.125 3.93755 5.425 4.2438 4.8125 4.81255C4.2 5.3813 3.9375 6.12505 3.9375 7.00005C3.9375 7.6563 4.1125 8.22505 4.41875 8.7063L3.5 9.6688C3.36875 9.5813 3.2375 9.45005 3.15 9.36255ZM5.075 8.05005C4.9 7.7438 4.8125 7.3938 4.8125 7.00005C4.8125 6.38755 5.03125 5.86255 5.46875 5.4688C5.90625 5.07505 6.3875 4.81255 7 4.81255C7.39375 4.81255 7.74375 4.90005 8.00625 5.07505L5.075 8.05005Z" fill="#A8ABB2"/>
<path d="M12.1625 4.5938C11.9875 4.37505 11.7687 4.20005 11.5937 4.02505L10.9375 4.6813C11.9437 5.60005 12.6437 6.38755 12.9937 7.00005C12.6 7.6563 11.9 8.4438 10.8937 9.36255C9.88749 10.2813 8.53124 10.85 6.99999 10.9375C6.29999 10.8938 5.64374 10.7626 5.07499 10.5438L4.41874 11.2001C5.20624 11.5063 6.03749 11.725 6.99999 11.8125C9.18749 11.5938 10.9375 10.8063 12.1625 9.4063C13.3875 8.0063 14 7.2188 14 7.00005C14 6.7813 13.3437 5.9938 12.1625 4.5938Z" fill="#A8ABB2"/>
<path d="M6.99998 9.18755C6.82498 9.18755 6.64998 9.1438 6.47498 9.10005L5.77498 9.80005C6.16873 9.97505 6.56248 10.0626 6.99998 10.0626C7.87498 10.0626 8.57498 9.7563 9.18748 9.18755C9.75623 8.6188 10.0625 7.87505 10.0625 7.00005C10.0625 6.56255 9.97498 6.12505 9.79998 5.77505L9.09998 6.47505C9.14373 6.65005 9.18748 6.82505 9.18748 7.00005C9.18748 7.61255 8.96873 8.13755 8.53123 8.5313C8.09373 8.92505 7.61248 9.18755 6.99998 9.18755Z" fill="#A8ABB2"/>
</svg>
