<svg width="18" height="18" viewBox="0 0 18 18" fill="none" xmlns="http://www.w3.org/2000/svg">
<path d="M8.43751 4.5C8.60158 4.5 8.73634 4.55273 8.84181 4.6582C8.94728 4.76367 9.00001 4.89844 9.00001 5.0625V9H12.9375C13.3125 9 13.5 9.1875 13.5 9.5625C13.5 9.9375 13.3125 10.125 12.9375 10.125L8.43751 10.125L8.43367 10.125C8.06251 10.1237 7.8763 9.9375 7.87502 9.56634L7.87501 9.5625V5.0625C7.87501 4.89844 7.92775 4.76367 8.03322 4.6582C8.13869 4.55273 8.27345 4.5 8.43751 4.5Z" fill="currentColor"/>
<path fill-rule="evenodd" clip-rule="evenodd" d="M3.43652 14.5635C4.91895 16.0459 6.77344 16.8164 9 16.875C11.2266 16.8164 13.0811 16.0459 14.5635 14.5635C16.0459 13.0811 16.8164 11.2266 16.875 9C16.8164 6.77344 16.0459 4.91895 14.5635 3.43652C13.0811 1.9541 11.2266 1.18359 9 1.125C6.77344 1.18359 4.91895 1.9541 3.43652 3.43652C1.9541 4.91895 1.18359 6.77344 1.125 9C1.18359 11.2266 1.9541 13.0811 3.43652 14.5635ZM13.7724 13.7725C12.5009 15.0439 10.9101 15.7031 8.99996 15.75C7.0898 15.7031 5.49898 15.0439 4.22749 13.7725C2.95601 12.501 2.29683 10.9102 2.24996 9C2.29683 7.08984 2.95601 5.49902 4.22749 4.22754C5.49898 2.95606 7.0898 2.29688 8.99996 2.25C10.9101 2.29688 12.5009 2.95606 13.7724 4.22754C15.0439 5.49902 15.7031 7.08984 15.75 9C15.7031 10.9102 15.0439 12.501 13.7724 13.7725Z" fill="currentColor"/>
</svg>
