<svg width="160" height="40" viewBox="0 0 160 40" fill="none" xmlns="http://www.w3.org/2000/svg">
<path d="M94.82 9.33988H90.9804C90.5892 9.33988 90.2733 9.64807 90.2733 10.0299V20.3127C90.2733 21.603 89.8326 22.6472 88.951 23.4452C88.0695 24.2433 86.9146 24.6412 85.4886 24.6412C84.0626 24.6412 83.0184 24.2548 82.2783 23.482C81.5382 22.7092 81.1681 21.6536 81.1681 20.3104V10.0276C81.1681 9.64577 80.8523 9.33759 80.461 9.33759H76.6214C76.2302 9.33759 75.9143 9.64577 75.9143 10.0276V21.2235C75.9143 23.6292 76.6403 25.5772 78.0922 27.0722C79.5441 28.5671 81.5028 29.3123 83.9683 29.3123C86.6671 29.3123 89.4625 28.2221 90.2733 25.3058V26.8813C90.2733 28.0151 91.2138 28.9328 92.3758 28.9328H94.82C95.2113 28.9328 95.5271 28.6246 95.5271 28.2428V10.0299C95.5271 9.64807 95.2113 9.33988 94.82 9.33988Z" fill="#FF8200"/>
<path d="M128.299 13.6682C129.362 13.6682 130.324 13.9396 131.179 14.4847C131.879 14.9309 132.44 15.5312 132.864 16.2901C133.032 16.5891 133.39 16.7317 133.718 16.619L137.211 15.4369C137.614 15.3012 137.805 14.8458 137.612 14.4732C136.768 12.8403 135.596 11.5454 134.097 10.5933C132.386 9.50541 130.451 8.96033 128.299 8.96033C125.237 8.96033 122.682 9.93549 120.634 11.8835C118.583 13.8338 117.56 16.251 117.56 19.1351C117.56 22.0192 118.586 24.4387 120.634 26.3867C122.682 28.3371 125.239 29.3099 128.299 29.3099C130.451 29.3099 132.386 28.7648 134.097 27.677C135.596 26.7248 136.768 25.43 137.612 23.797C137.805 23.4245 137.614 22.9691 137.211 22.8334L133.718 21.6512C133.388 21.5408 133.029 21.6834 132.864 21.9801C132.443 22.7414 131.882 23.3486 131.179 23.8039C130.324 24.3605 129.364 24.6388 128.299 24.6388C126.795 24.6388 125.536 24.1144 124.525 23.0634C123.514 22.0123 123.007 20.7037 123.007 19.1328C123.007 17.562 123.514 16.2924 124.525 15.2414C125.536 14.1903 126.795 13.6659 128.299 13.6659" fill="#FF8200"/>
<path d="M158.945 9.33988H155.105C154.714 9.33988 154.398 9.64807 154.398 10.0299V20.3127C154.398 21.603 153.957 22.6472 153.076 23.4452C152.194 24.2433 151.039 24.6412 149.613 24.6412C148.187 24.6412 147.143 24.2548 146.403 23.482C145.663 22.7092 145.293 21.6536 145.293 20.3104V10.0276C145.293 9.64577 144.977 9.33759 144.586 9.33759H140.746C140.355 9.33759 140.039 9.64577 140.039 10.0276V21.2235C140.039 23.6292 140.765 25.5772 142.219 27.0722C143.671 28.5671 145.63 29.3123 148.095 29.3123C150.794 29.3123 153.59 28.2221 154.401 25.3058V26.8813C154.401 28.0151 155.341 28.9328 156.503 28.9328H158.947C159.338 28.9328 159.654 28.6246 159.654 28.2428V10.0299C159.654 9.64807 159.338 9.33988 158.947 9.33988" fill="#FF8200"/>
<path d="M66.2996 24.434H59.0329C60.6404 22.6815 61.0434 17.8678 61.1613 14.004H66.2996V24.434ZM73.0124 24.434H71.5534V10.147C71.5534 9.70773 71.1881 9.35124 70.7355 9.35124H60.5508C59.3063 9.35124 58.2079 9.20405 57.2415 10.0872C56.2869 10.9612 56.3011 12.2583 56.2398 12.7137C56.162 13.3025 56.096 14.0638 55.9946 15.1309C55.2663 22.8816 53.9016 24.434 53.9016 24.434H52.683C52.1173 24.434 51.6601 24.8802 51.6601 25.4322V30.0458C51.6601 31.3338 52.7302 32.3779 54.0501 32.3779H55.8132C56.2751 32.3779 56.6499 32.0122 56.6499 31.5615V28.9442H68.5812V30.0458C68.5812 31.3338 69.6513 32.3779 70.9712 32.3779H73.0289C73.4909 32.3779 73.8656 32.0122 73.8656 31.5615V25.2689C73.8656 24.8089 73.4838 24.4363 73.0124 24.4363" fill="#FF8200"/>
<path d="M117.767 27.723L109.88 18.9466L117.531 10.2943C117.864 9.91942 117.59 9.33984 117.084 9.33984H113.385C112.629 9.33984 111.908 9.66413 111.42 10.2299L104.69 17.9829V10.0298C104.69 9.64803 104.374 9.33984 103.983 9.33984H100.144C99.7523 9.33984 99.4365 9.64803 99.4365 10.0298V28.2428C99.4365 28.6246 99.7523 28.9328 100.144 28.9328H103.983C104.374 28.9328 104.69 28.6246 104.69 28.2428V19.9125L111.658 27.9484C112.2 28.5717 112.994 28.9328 113.833 28.9328H117.204C117.847 28.9328 118.189 28.1945 117.767 27.723Z" fill="#FF8200"/>
<path d="M40.9934 20C40.9934 31.0465 31.8152 40 20.4967 40C9.17826 40 0 31.0465 0 20C0 8.95354 9.17591 0 20.4967 0C31.8175 0 40.9934 8.95354 40.9934 20Z" fill="white"/>
<path d="M5.89767 30.2852C9.16922 34.6987 14.4867 37.5713 20.4947 37.5713C26.5028 37.5713 31.8203 34.6987 35.0918 30.2852C30.597 31.6836 25.6661 32.4563 20.4947 32.4563C15.3234 32.4563 10.3925 31.6836 5.89767 30.2852Z" fill="#97D700"/>
<path d="M17.058 21.1178H22.7502V12.9485H18.7268C18.6325 15.9752 18.319 19.7447 17.0604 21.1178" fill="#FF8200"/>
<path d="M28.6759 26.6997C28.6759 27.0539 28.3812 27.3391 28.0182 27.3391H26.4084C25.376 27.3391 24.5369 26.5203 24.5369 25.5129V24.6482H15.1913V26.6974C15.1913 27.0516 14.8967 27.3368 14.536 27.3368H13.1548C12.1224 27.3368 11.2834 26.518 11.2834 25.5106V21.8975C11.2834 21.4651 11.6416 21.1155 12.0847 21.1155H13.0393C13.0393 21.1155 14.1071 19.8989 14.6775 13.8271C14.7552 12.9899 14.8095 12.3943 14.8707 11.932C14.9179 11.5755 14.9085 10.5612 15.6556 9.87585C16.4122 9.18128 17.2726 9.29858 18.2484 9.29858H26.2245C26.5781 9.29858 26.8633 9.57687 26.8633 9.92185V21.1132H28.0065C28.3765 21.1132 28.6759 21.4053 28.6759 21.7664V26.6951V26.6997ZM20.4946 2.42645C10.548 2.42645 2.48692 10.2944 2.48692 19.9977C2.48692 23.2659 3.40381 26.3225 4.99716 28.9444C9.7725 30.253 15.0075 30.9798 20.497 30.9798C25.9865 30.9798 31.2191 30.2553 35.9968 28.9444C37.5901 26.3225 38.507 23.2659 38.507 19.9977C38.507 10.2944 30.4436 2.42645 20.4993 2.42645" fill="#FF8200"/>
</svg>
