<svg width="18" height="18" viewBox="0 0 18 18" fill="none" xmlns="http://www.w3.org/2000/svg">
<path d="M3.375 7.27652V15.75H14.625V7.27652L9 2.58977L3.375 7.27652ZM2.4525 6.58127L8.64 1.42539C8.74107 1.34121 8.86846 1.2951 9 1.2951C9.13154 1.2951 9.25893 1.34121 9.36 1.42539L15.5475 6.58127C15.6109 6.63404 15.6618 6.70008 15.6968 6.77474C15.7318 6.84939 15.75 6.93082 15.75 7.01327V16.3125C15.75 16.4617 15.6907 16.6048 15.5852 16.7103C15.4798 16.8158 15.3367 16.875 15.1875 16.875H2.8125C2.66332 16.875 2.52024 16.8158 2.41475 16.7103C2.30926 16.6048 2.25 16.4617 2.25 16.3125V7.01327C2.25003 6.93082 2.26819 6.84939 2.30318 6.77474C2.33817 6.70008 2.38915 6.63404 2.4525 6.58127Z" fill="currentColor"/>
</svg>
