<svg width="14" height="14" viewBox="0 0 14 14" fill="none" xmlns="http://www.w3.org/2000/svg">
<path d="M2.40625 5.6875C2.20516 5.6875 2.00605 5.72711 1.82027 5.80406C1.63449 5.88101 1.46568 5.9938 1.32349 6.13599C1.1813 6.27818 1.06851 6.44699 0.991559 6.63277C0.914607 6.81855 0.875 7.01766 0.875 7.21875C0.875 7.41984 0.914607 7.61895 0.991559 7.80473C1.06851 7.99051 1.1813 8.15932 1.32349 8.30151C1.46568 8.4437 1.63449 8.55649 1.82027 8.63344C2.00605 8.71039 2.20516 8.75 2.40625 8.75C2.81236 8.75 3.20184 8.58867 3.48901 8.30151C3.77617 8.01434 3.9375 7.62486 3.9375 7.21875C3.9375 6.81264 3.77617 6.42316 3.48901 6.13599C3.20184 5.84883 2.81236 5.6875 2.40625 5.6875ZM2.40625 6.5625C2.5803 6.5625 2.74722 6.63164 2.87029 6.75471C2.99336 6.87778 3.0625 7.0447 3.0625 7.21875C3.0625 7.3928 2.99336 7.55972 2.87029 7.68279C2.74722 7.80586 2.5803 7.875 2.40625 7.875C2.2322 7.875 2.06528 7.80586 1.94221 7.68279C1.81914 7.55972 1.75 7.3928 1.75 7.21875C1.75 7.0447 1.81914 6.87778 1.94221 6.75471C2.06528 6.63164 2.2322 6.5625 2.40625 6.5625ZM7 5.6875C7.20109 5.6875 7.4002 5.72711 7.58598 5.80406C7.77176 5.88101 7.94057 5.9938 8.08276 6.13599C8.22495 6.27818 8.33774 6.44699 8.41469 6.63277C8.49164 6.81855 8.53125 7.01766 8.53125 7.21875C8.53125 7.41984 8.49164 7.61895 8.41469 7.80473C8.33774 7.99051 8.22495 8.15932 8.08276 8.30151C7.94057 8.4437 7.77176 8.55649 7.58598 8.63344C7.4002 8.71039 7.20109 8.75 7 8.75C6.59389 8.75 6.20441 8.58867 5.91724 8.30151C5.63008 8.01434 5.46875 7.62486 5.46875 7.21875C5.46875 6.81264 5.63008 6.42316 5.91724 6.13599C6.20441 5.84883 6.59389 5.6875 7 5.6875ZM7 6.5625C6.82595 6.5625 6.65903 6.63164 6.53596 6.75471C6.41289 6.87778 6.34375 7.0447 6.34375 7.21875C6.34375 7.3928 6.41289 7.55972 6.53596 7.68279C6.65903 7.80586 6.82595 7.875 7 7.875C7.17405 7.875 7.34097 7.80586 7.46404 7.68279C7.58711 7.55972 7.65625 7.3928 7.65625 7.21875C7.65625 7.0447 7.58711 6.87778 7.46404 6.75471C7.34097 6.63164 7.17405 6.5625 7 6.5625ZM11.5938 5.6875C11.7948 5.6875 11.994 5.72711 12.1797 5.80406C12.3655 5.88101 12.5343 5.9938 12.6765 6.13599C12.8187 6.27818 12.9315 6.44699 13.0084 6.63277C13.0854 6.81855 13.125 7.01766 13.125 7.21875C13.125 7.41984 13.0854 7.61895 13.0084 7.80473C12.9315 7.99051 12.8187 8.15932 12.6765 8.30151C12.5343 8.4437 12.3655 8.55649 12.1797 8.63344C11.994 8.71039 11.7948 8.75 11.5938 8.75C11.1876 8.75 10.7982 8.58867 10.511 8.30151C10.2238 8.01434 10.0625 7.62486 10.0625 7.21875C10.0625 6.81264 10.2238 6.42316 10.511 6.13599C10.7982 5.84883 11.1876 5.6875 11.5938 5.6875ZM11.5938 6.5625C11.4197 6.5625 11.2528 6.63164 11.1297 6.75471C11.0066 6.87778 10.9375 7.0447 10.9375 7.21875C10.9375 7.3928 11.0066 7.55972 11.1297 7.68279C11.2528 7.80586 11.4197 7.875 11.5938 7.875C11.7678 7.875 11.9347 7.80586 12.0578 7.68279C12.1809 7.55972 12.25 7.3928 12.25 7.21875C12.25 7.0447 12.1809 6.87778 12.0578 6.75471C11.9347 6.63164 11.7678 6.5625 11.5938 6.5625Z" fill="#606266"/>
</svg>
