<svg width="6" height="12" viewBox="0 0 6 12" fill="none" xmlns="http://www.w3.org/2000/svg">
<path d="M0.450086 1.03694C0.368128 1.12823 0.327148 1.22856 0.327148 1.33794C0.327148 1.44731 0.368128 1.54298 0.450086 1.62494L4.71571 5.99994L0.450086 10.3749C0.368128 10.4569 0.327148 10.5526 0.327148 10.6619C0.327148 10.7713 0.368128 10.867 0.450086 10.9489C0.532044 11.0309 0.627711 11.0719 0.737086 11.0719C0.846461 11.0719 0.942128 11.0354 1.02409 10.9625L5.54959 6.3005C5.63154 6.21854 5.67252 6.11821 5.67252 5.9995C5.67252 5.88079 5.63154 5.78046 5.54959 5.6985L1.02409 1.0365C0.942128 0.963582 0.846461 0.927124 0.737086 0.927124C0.627711 0.927124 0.532044 0.963582 0.450086 1.0365V1.03694Z" fill="#606266"/>
</svg>
