<svg width="6" height="12" viewBox="0 0 6 12" fill="none" xmlns="http://www.w3.org/2000/svg">
<path d="M4.97559 1.03704L0.450086 5.69904C0.368128 5.781 0.327148 5.879 0.327148 5.99304C0.327148 6.10708 0.368128 6.2096 0.450086 6.3006L4.97559 10.9626C5.05754 11.0355 5.15321 11.072 5.26259 11.072C5.37196 11.072 5.46763 11.031 5.54959 10.949C5.63154 10.8671 5.67252 10.7714 5.67252 10.662C5.67252 10.5527 5.63154 10.457 5.54959 10.375L1.28396 6.00004L5.54959 1.62504C5.63154 1.54308 5.67252 1.44741 5.67252 1.33804C5.67252 1.22866 5.63154 1.133 5.54959 1.05104C5.46763 0.96908 5.37196 0.928101 5.26259 0.928101C5.15321 0.928101 5.05754 0.964559 4.97559 1.03748V1.03704Z" fill="#C0C4CC"/>
</svg>
