<svg width="14" height="4" viewBox="0 0 14 4" fill="none" xmlns="http://www.w3.org/2000/svg">
<path d="M2.40625 0.6875C2.84375 0.696542 3.206 0.844708 3.493 1.132C3.78 1.41929 3.92817 1.78154 3.9375 2.21875C3.92846 2.65625 3.78029 3.0185 3.493 3.3055C3.20571 3.5925 2.84346 3.74067 2.40625 3.75C1.96875 3.74096 1.6065 3.59279 1.3195 3.3055C1.0325 3.01821 0.884333 2.65596 0.875 2.21875C0.884042 1.78125 1.03221 1.419 1.3195 1.132C1.60679 0.845 1.96904 0.696833 2.40625 0.6875ZM7 0.6875C7.4375 0.696542 7.79975 0.844708 8.08675 1.132C8.37375 1.41929 8.52192 1.78154 8.53125 2.21875C8.52221 2.65625 8.37404 3.0185 8.08675 3.3055C7.79946 3.5925 7.43721 3.74067 7 3.75C6.5625 3.74096 6.20025 3.59279 5.91325 3.3055C5.62625 3.01821 5.47808 2.65596 5.46875 2.21875C5.47779 1.78125 5.62596 1.419 5.91325 1.132C6.20054 0.845 6.56279 0.696833 7 0.6875ZM11.5938 0.6875C12.0312 0.696542 12.3935 0.844708 12.6805 1.132C12.9675 1.41929 13.1157 1.78154 13.125 2.21875C13.116 2.65625 12.9678 3.0185 12.6805 3.3055C12.3932 3.5925 12.031 3.74067 11.5938 3.75C11.1562 3.74096 10.794 3.59279 10.507 3.3055C10.22 3.01821 10.0718 2.65596 10.0625 2.21875C10.0715 1.78125 10.2197 1.419 10.507 1.132C10.7943 0.845 11.1565 0.696833 11.5938 0.6875Z" fill="#606266"/>
</svg>
