<svg width="12" height="12" viewBox="0 0 12 12" fill="none" xmlns="http://www.w3.org/2000/svg">
<path fill-rule="evenodd" clip-rule="evenodd" d="M6 0.3125C5.75838 0.3125 5.5625 0.508376 5.5625 0.75V5.5625H0.75C0.508376 5.5625 0.3125 5.75838 0.3125 6C0.3125 6.24162 0.508376 6.4375 0.75 6.4375H5.5625V11.25C5.5625 11.4916 5.75838 11.6875 6 11.6875C6.24162 11.6875 6.4375 11.4916 6.4375 11.25V6.4375H11.25C11.4916 6.4375 11.6875 6.24162 11.6875 6C11.6875 5.75838 11.4916 5.5625 11.25 5.5625H6.4375V0.75C6.4375 0.508375 6.24162 0.3125 6 0.3125Z" fill="#FF8201"/>
</svg>
