<svg width="14" height="14" viewBox="0 0 14 14" fill="none" xmlns="http://www.w3.org/2000/svg">
<path d="M11.0884 10.4726L12.7969 12.1811C12.8788 12.2723 12.9198 12.3748 12.9198 12.4885C12.9198 12.6023 12.8765 12.7026 12.7899 12.7895C12.7033 12.8764 12.603 12.9197 12.489 12.9194C12.3749 12.9191 12.2724 12.8781 12.1815 12.7965L10.4729 11.088C9.26099 12.0812 7.91683 12.5345 6.44041 12.4479C4.964 12.3613 3.6837 11.7575 2.5995 10.6366C1.56049 9.46117 1.0547 8.13528 1.08211 6.65892C1.10952 5.18257 1.66547 3.87942 2.74997 2.74948C3.87995 1.66502 5.18314 1.10909 6.65956 1.08168C8.13597 1.05427 9.46191 1.56005 10.6374 2.59901C11.7583 3.68346 12.3621 4.96372 12.4487 6.43979C12.5353 7.91585 12.082 9.25997 11.0888 10.4721L11.0884 10.4726ZM6.76891 11.5796C8.13597 11.5432 9.27047 11.0739 10.1724 10.1717C11.0744 9.26945 11.5437 8.13499 11.5804 6.76827C11.544 5.40126 11.0747 4.2668 10.1724 3.36489C9.27018 2.46298 8.13568 1.99366 6.76891 1.95691C5.40185 1.99336 4.26735 2.46269 3.3654 3.36489C2.46346 4.2671 1.99412 5.40156 1.95737 6.76827C1.99382 8.13528 2.46317 9.26974 3.3654 10.1717C4.26764 11.0736 5.40214 11.5429 6.76891 11.5796Z" fill="#FF8201"/>
</svg>
