<svg width="18" height="18" viewBox="0 0 18 18" fill="none" xmlns="http://www.w3.org/2000/svg">
<path d="M9 15.75C9.88642 15.75 10.7642 15.5754 11.5831 15.2362C12.4021 14.897 13.1462 14.3998 13.773 13.773C14.3998 13.1462 14.897 12.4021 15.2362 11.5831C15.5754 10.7642 15.75 9.88642 15.75 9C15.75 8.11358 15.5754 7.23583 15.2362 6.41689C14.897 5.59794 14.3998 4.85382 13.773 4.22703C13.1462 3.60023 12.4021 3.10303 11.5831 2.76381C10.7642 2.42459 9.88642 2.25 9 2.25C7.20979 2.25 5.4929 2.96116 4.22703 4.22703C2.96116 5.4929 2.25 7.20979 2.25 9C2.25 10.7902 2.96116 12.5071 4.22703 13.773C5.4929 15.0388 7.20979 15.75 9 15.75ZM9 16.875C6.91142 16.875 4.90838 16.0453 3.43153 14.5685C1.95469 13.0916 1.125 11.0886 1.125 9C1.125 6.91142 1.95469 4.90838 3.43153 3.43153C4.90838 1.95469 6.91142 1.125 9 1.125C11.0886 1.125 13.0916 1.95469 14.5685 3.43153C16.0453 4.90838 16.875 6.91142 16.875 9C16.875 11.0886 16.0453 13.0916 14.5685 14.5685C13.0916 16.0453 11.0886 16.875 9 16.875Z" fill="currentColor"/>
<path d="M9 1.6875C9.14918 1.6875 9.29226 1.74676 9.39775 1.85225C9.50324 1.95774 9.5625 2.10082 9.5625 2.25V5.625C9.5625 5.77418 9.50324 5.91726 9.39775 6.02275C9.29226 6.12824 9.14918 6.1875 9 6.1875C8.85082 6.1875 8.70774 6.12824 8.60225 6.02275C8.49676 5.91726 8.4375 5.77418 8.4375 5.625V2.25C8.4375 2.10082 8.49676 1.95774 8.60225 1.85225C8.70774 1.74676 8.85082 1.6875 9 1.6875ZM9 11.8125C9.14918 11.8125 9.29226 11.8718 9.39775 11.9773C9.50324 12.0827 9.5625 12.2258 9.5625 12.375V15.75C9.5625 15.8992 9.50324 16.0423 9.39775 16.1477C9.29226 16.2532 9.14918 16.3125 9 16.3125C8.85082 16.3125 8.70774 16.2532 8.60225 16.1477C8.49676 16.0423 8.4375 15.8992 8.4375 15.75V12.375C8.4375 12.2258 8.49676 12.0827 8.60225 11.9773C8.70774 11.8718 8.85082 11.8125 9 11.8125ZM1.6875 9C1.6875 8.85082 1.74676 8.70774 1.85225 8.60225C1.95774 8.49676 2.10082 8.4375 2.25 8.4375H5.625C5.77418 8.4375 5.91726 8.49676 6.02275 8.60225C6.12824 8.70774 6.1875 8.85082 6.1875 9C6.1875 9.14918 6.12824 9.29226 6.02275 9.39775C5.91726 9.50324 5.77418 9.5625 5.625 9.5625H2.25C2.10082 9.5625 1.95774 9.50324 1.85225 9.39775C1.74676 9.29226 1.6875 9.14918 1.6875 9ZM11.8125 9C11.8125 8.85082 11.8718 8.70774 11.9773 8.60225C12.0827 8.49676 12.2258 8.4375 12.375 8.4375H15.75C15.8992 8.4375 16.0423 8.49676 16.1477 8.60225C16.2532 8.70774 16.3125 8.85082 16.3125 9C16.3125 9.14918 16.2532 9.29226 16.1477 9.39775C16.0423 9.50324 15.8992 9.5625 15.75 9.5625H12.375C12.2258 9.5625 12.0827 9.50324 11.9773 9.39775C11.8718 9.29226 11.8125 9.14918 11.8125 9Z" fill="currentColor"/>
</svg>
