<svg width="15" height="15" viewBox="0 0 15 15" fill="none" xmlns="http://www.w3.org/2000/svg">
<path d="M2.6875 4H1.8125C1.68475 4 1.5799 3.95902 1.49794 3.87706C1.41598 3.7951 1.375 3.69025 1.375 3.5625C1.375 3.43475 1.41598 3.3299 1.49794 3.24794C1.5799 3.16598 1.68475 3.125 1.8125 3.125H5.3125V1.8125C5.3125 1.68475 5.35348 1.5799 5.43544 1.49794C5.5174 1.41598 5.62225 1.375 5.75 1.375H9.25C9.37775 1.375 9.4826 1.41598 9.56456 1.49794C9.64652 1.5799 9.6875 1.68475 9.6875 1.8125V3.125H13.1875C13.3153 3.125 13.4201 3.16598 13.5021 3.24794C13.584 3.3299 13.625 3.43475 13.625 3.5625C13.625 3.69025 13.584 3.7951 13.5021 3.87706C13.4201 3.95902 13.3153 4 13.1875 4H12.3125V13.1875C12.3125 13.3153 12.2715 13.4201 12.1896 13.5021C12.1076 13.584 12.0028 13.625 11.875 13.625H3.125C2.99725 13.625 2.8924 13.584 2.81044 13.5021C2.72848 13.4201 2.6875 13.3153 2.6875 13.1875V4ZM8.8125 3.125V2.25H6.1875V3.125H8.8125ZM3.5625 12.75H11.4375V4H3.5625V12.75ZM6.1875 11C6.05975 11 5.9549 10.959 5.87294 10.8771C5.79098 10.7951 5.75 10.6903 5.75 10.5625V6.1875C5.75 6.05975 5.79098 5.9549 5.87294 5.87294C5.9549 5.79098 6.05975 5.75 6.1875 5.75C6.31525 5.75 6.4201 5.79098 6.50206 5.87294C6.58402 5.9549 6.625 6.05975 6.625 6.1875V10.5625C6.625 10.6903 6.58402 10.7951 6.50206 10.8771C6.4201 10.959 6.31525 11 6.1875 11ZM8.8125 11C8.68475 11 8.5799 10.959 8.49794 10.8771C8.41598 10.7951 8.375 10.6903 8.375 10.5625V6.1875C8.375 6.05975 8.41598 5.9549 8.49794 5.87294C8.5799 5.79098 8.68475 5.75 8.8125 5.75C8.94025 5.75 9.0451 5.79098 9.12706 5.87294C9.20902 5.9549 9.25 6.05975 9.25 6.1875V10.5625C9.25 10.6903 9.20902 10.7951 9.12706 10.8771C9.0451 10.959 8.94025 11 8.8125 11Z" fill="#606266"/>
</svg>
