<svg width="18" height="18" viewBox="0 0 18 18" fill="none" xmlns="http://www.w3.org/2000/svg">
<path d="M5.57325 2.25L2.25 6.048V15.75H15.75V6.048L12.4267 2.25H5.57325ZM5.31788 1.125H12.6821C12.7622 1.12494 12.8413 1.14197 12.9143 1.17495C12.9872 1.20793 13.0523 1.25611 13.1051 1.31625L16.7355 5.46638C16.8253 5.56879 16.8748 5.70031 16.875 5.8365V16.3125C16.875 16.4617 16.8157 16.6048 16.7102 16.7102C16.6048 16.8157 16.4617 16.875 16.3125 16.875H1.6875C1.53832 16.875 1.39524 16.8157 1.28975 16.7102C1.18426 16.6048 1.125 16.4617 1.125 16.3125V5.8365C1.12489 5.69992 1.17447 5.56796 1.2645 5.46525L4.89375 1.3185C4.9465 1.2578 5.01166 1.20912 5.08482 1.17574C5.15799 1.14237 5.23746 1.12506 5.31788 1.125Z" fill="currentColor"/>
<path d="M1.125 5.625H16.875V6.75H1.125V5.625Z" fill="currentColor"/>
<path d="M7.875 5.76338V11.25H10.125V5.76338L9.2475 2.25H8.7525L7.875 5.76338ZM7.875 1.125H10.125L11.25 5.625V11.8125C11.25 11.9617 11.1907 12.1048 11.0852 12.2102C10.9798 12.3157 10.8367 12.375 10.6875 12.375H7.3125C7.16332 12.375 7.02024 12.3157 6.91475 12.2102C6.80926 12.1048 6.75 11.9617 6.75 11.8125V5.625L7.875 1.125Z" fill="currentColor"/>
</svg>
